<?xml version="1.0" encoding="UTF-8"?><svg id="Layer_2" xmlns="http://www.w3.org/2000/svg" viewBox="0 0 467.36 490.7"><defs><style>.cls-1,.cls-2{fill:none;}.cls-3{fill:#035890;}.cls-2{stroke:#e0e2e1;stroke-linecap:square;stroke-linejoin:round;}.cls-4{fill:#020c2f;}.cls-5{font-family:Futura-Medium, Futura;font-size:72px;font-weight:500;}.cls-5,.cls-6,.cls-7{fill:#030c33;}.cls-8{fill:#031447;}.cls-6{font-family:Roboto-Light, Roboto;font-size:48px;font-weight:300;}.cls-9{fill:#032b5a;}.cls-10{fill:#099eca;}</style></defs><g id="Layer_1-2"><path class="cls-1" d="M36.18,355.21v-74.39h30.63v-84.43l27.54-21.3,33.46,21.68,1.29,115.06s-59.07,20.08-92.92,43.37Z"/><path class="cls-4" d="M161.01,0v308.36c-7.97,1.49-15.89,3.24-23.73,5.25V93.7h2.88v-9.78h5.66l8.5-33.21h2.83l3.86-50.71Z"/><path class="cls-9" d="M184.74,93.7l-1.12,102.84-1.18,108.45c-7.18.92-14.33,2.04-21.43,3.37V0l3.86,50.71h2.83l8.5,33.21h5.66v9.78h2.88Z"/><path class="cls-10" d="M215.88,302.18c-11.19.45-22.35,1.38-33.44,2.81l1.12-108.43.06-.02,32.18-10.5.08,116.14Z"/><path class="cls-3" d="M277.24,123.25v181.28c-8.3-.98-16.63-1.68-24.97-2.12V83.1l1.42,9.91,1.03,4.89,2.05,5.14,20.47,20.21Z"/><path class="cls-9" d="M252.27,83.1v219.31c-8.32-.44-16.65-.62-24.97-.52V123.25l20.47-20.21,2.05-5.14,1.03-4.89,1.42-9.91Z"/><line class="cls-2" x1="252.27" y1="113.37" x2="227.3" y2="131.59"/><line class="cls-2" x1="277.24" y1="131.59" x2="252.27" y2="113.37"/><path class="cls-3" d="M336,83.36v232.7c-15.85-4.42-32.02-7.82-48.36-10.17v-75.97l22.01,12.24V66.21l26.35,17.15Z"/><path class="cls-10" d="M366.02,102.89v222.9c-9.85-3.66-19.87-6.91-30.02-9.73V83.36l30.02,19.53Z"/><path class="cls-7" d="M402.8,207.09v134.75c-9.69-4.9-19.61-9.34-29.73-13.34v-102.35l29.35-19.3.38.24Z"/><path class="cls-9" d="M432.53,225.77v132.97c-9.61-6.12-19.54-11.76-29.73-16.9v-134.75l29.73,18.68Z"/><path class="cls-9" d="M129.08,315.82c-11.8,3.32-23.41,7.23-34.78,11.76v-152.44l.06-.05,33.46,21.68,1.22,115.08.04,3.97Z"/><path class="cls-7" d="M94.3,175.11v152.47c-20.29,8.06-39.78,18.04-58.11,29.97v-76.76h30.63v-84.43l27.48-21.25Z"/><path class="cls-8" d="M0,392.58c117.66-103.92,306.82-108.82,436.32-23.84,0,0,6.51,4.4,6.51,4.4,0,0,1.62,1.11,1.62,1.11,0,0,1.58,1.17,1.58,1.17l3.15,2.35c5.99,4.39,12.66,9.91,18.2,14.82,0,0-.43.62-.43.62-4.71-2.24-9.29-4.63-13.92-6.89-6.55-3.04-14.38-6.78-21.05-9.53-128.31-55.53-276.4-55.65-403.69,2.9,0,0-13.96,6.57-13.96,6.57-4.61,2.3-9.19,4.69-13.89,6.95l-.43-.61h0Z"/><text class="cls-5" transform="translate(76.54 426.7)"><tspan x="0" y="0">AGHAAZ</tspan></text><text class="cls-6" transform="translate(98.89 477.69)"><tspan x="0" y="0">Real Estate</tspan></text></g></svg>