<svg width="25" height="24" viewBox="0 0 25 24" fill="none" xmlns="http://www.w3.org/2000/svg">
<rect x="0.5" width="24" height="24" rx="12" fill="#D5D8DD"/>
<rect width="16" height="16" transform="translate(4.5 3.5127)" fill="white" fill-opacity="0.01" style="mix-blend-mode:multiply"/>
<path d="M17 8.51272H16.97C16.8428 7.41643 16.3171 6.40512 15.493 5.67108C14.6688 4.93704 13.6036 4.53146 12.5 4.53146C11.3964 4.53146 10.3312 4.93704 9.50704 5.67108C8.68289 6.40512 8.15723 7.41643 8.03 8.51272H8C7.33696 8.51272 6.70107 8.77611 6.23223 9.24495C5.76339 9.71379 5.5 10.3497 5.5 11.0127C5.5 11.6758 5.76339 12.3116 6.23223 12.7805C6.70107 13.2493 7.33696 13.5127 8 13.5127H9V9.01272C9 8.08446 9.36875 7.19422 10.0251 6.53784C10.6815 5.88146 11.5717 5.51272 12.5 5.51272C13.4283 5.51272 14.3185 5.88146 14.9749 6.53784C15.6313 7.19422 16 8.08446 16 9.01272V14.0127C15.9997 14.4708 15.8421 14.9149 15.5536 15.2708C15.2651 15.6266 14.8631 15.8727 14.415 15.9677C14.2815 15.4996 13.9819 15.0962 13.5723 14.8332C13.1627 14.5702 12.6713 14.4656 12.1901 14.539C11.7089 14.6124 11.2709 14.8588 10.9584 15.2319C10.6458 15.6051 10.4801 16.0795 10.4923 16.5661C10.5044 17.0527 10.6937 17.5182 11.0245 17.8753C11.3553 18.2324 11.805 18.4566 12.2892 18.5058C12.7735 18.5551 13.2591 18.4261 13.6551 18.1429C14.051 17.8598 14.3301 17.4419 14.44 16.9677C15.1495 16.8625 15.7978 16.5066 16.2675 15.9645C16.7371 15.4224 16.997 14.73 17 14.0127V13.5127C17.663 13.5127 18.2989 13.2493 18.7678 12.7805C19.2366 12.3116 19.5 11.6758 19.5 11.0127C19.5 10.3497 19.2366 9.71379 18.7678 9.24495C18.2989 8.77611 17.663 8.51272 17 8.51272ZM6.5 11.0127C6.5 10.6149 6.65804 10.2334 6.93934 9.95205C7.22064 9.67075 7.60218 9.51272 8 9.51272V12.5127C7.60218 12.5127 7.22064 12.3547 6.93934 12.0734C6.65804 11.7921 6.5 11.4105 6.5 11.0127ZM12.5 17.5127C12.3022 17.5127 12.1089 17.4541 11.9444 17.3442C11.78 17.2343 11.6518 17.0781 11.5761 16.8954C11.5004 16.7127 11.4806 16.5116 11.5192 16.3176C11.5578 16.1236 11.653 15.9455 11.7929 15.8056C11.9327 15.6658 12.1109 15.5705 12.3049 15.5319C12.4989 15.4933 12.7 15.5131 12.8827 15.5888C13.0654 15.6645 13.2216 15.7927 13.3315 15.9571C13.4414 16.1216 13.5 16.3149 13.5 16.5127C13.5 16.7779 13.3946 17.0323 13.2071 17.2198C13.0196 17.4074 12.7652 17.5127 12.5 17.5127ZM17 12.5127V9.51272C17.3978 9.51272 17.7794 9.67075 18.0607 9.95205C18.342 10.2334 18.5 10.6149 18.5 11.0127C18.5 11.4105 18.342 11.7921 18.0607 12.0734C17.7794 12.3547 17.3978 12.5127 17 12.5127Z" fill="#099ECA"/>
</svg>
