<svg width="24" height="28" viewBox="0 0 24 28" fill="none" xmlns="http://www.w3.org/2000/svg">
<path d="M24 23L22.586 21.586L20 24.172V16H18V24.172L15.414 21.586L14 23L19 28L24 23Z" fill="#099ECA"/>
<path d="M12 26H2V2.00001H10V8.00001C10.0015 8.52997 10.2127 9.03779 10.5875 9.41253C10.9622 9.78727 11.47 9.99848 12 10H18V13H20V8.00001C20.0036 7.86858 19.9786 7.73793 19.9268 7.61708C19.875 7.49623 19.7976 7.38806 19.7 7.30001L12.7 0.300008C12.612 0.202337 12.5038 0.124932 12.3829 0.0731372C12.2621 0.0213426 12.1314 -0.00360795 12 8.03033e-06H2C1.47004 0.00153827 0.962218 0.212743 0.587477 0.587485C0.212735 0.962227 0.00153024 1.47005 0 2.00001V26C0.00153024 26.53 0.212735 27.0378 0.587477 27.4125C0.962218 27.7873 1.47004 27.9985 2 28H12V26ZM12 2.40001L17.6 8.00001H12V2.40001Z" fill="#099ECA"/>
</svg>
